<mxfile host="Electron" agent="Mozilla/5.0 (Windows NT 10.0; Win64; x64) AppleWebKit/537.36 (KHTML, like Gecko) draw.io/27.0.9 Chrome/134.0.6998.205 Electron/35.4.0 Safari/537.36" version="27.0.9">
  <diagram name="Page-1" id="cJFWHt3To8-H3M6hB_sO">
    <mxGraphModel dx="856" dy="531" grid="1" gridSize="10" guides="1" tooltips="1" connect="1" arrows="1" fold="1" page="1" pageScale="1" pageWidth="2339" pageHeight="3300" math="0" shadow="0">
      <root>
        <mxCell id="0" />
        <mxCell id="1" parent="0" />
        <mxCell id="dS1GmFQ2f3zdgsi-DhAc-37" value="" style="rounded=1;whiteSpace=wrap;html=1;dashed=1;fillColor=none;" parent="1" vertex="1">
          <mxGeometry x="90" y="130" width="660" height="400" as="geometry" />
        </mxCell>
        <mxCell id="dS1GmFQ2f3zdgsi-DhAc-39" value="" style="rounded=1;whiteSpace=wrap;html=1;dashed=1;fillColor=none;" parent="1" vertex="1">
          <mxGeometry x="810" y="130" width="660" height="400" as="geometry" />
        </mxCell>
        <mxCell id="dS1GmFQ2f3zdgsi-DhAc-1" value="&lt;h2&gt;Integration Model&amp;nbsp;&lt;/h2&gt;" style="rounded=1;whiteSpace=wrap;html=1;fillColor=none;strokeColor=none;" parent="1" vertex="1">
          <mxGeometry x="40" y="20" width="160" height="60" as="geometry" />
        </mxCell>
        <mxCell id="dS1GmFQ2f3zdgsi-DhAc-2" value="(how tables ae related)" style="rounded=0;whiteSpace=wrap;html=1;fillColor=none;strokeColor=none;fontSize=9;" parent="1" vertex="1">
          <mxGeometry x="160" y="20" width="180" height="60" as="geometry" />
        </mxCell>
        <mxCell id="dS1GmFQ2f3zdgsi-DhAc-3" value="crm_cust_info" style="swimlane;fontStyle=0;childLayout=stackLayout;horizontal=1;startSize=30;horizontalStack=0;resizeParent=1;resizeParentMax=0;resizeLast=0;collapsible=1;marginBottom=0;whiteSpace=wrap;html=1;fillColor=#dae8fc;rounded=1;strokeColor=#6c8ebf;" parent="1" vertex="1">
          <mxGeometry x="490" y="380" width="210" height="110" as="geometry" />
        </mxCell>
        <mxCell id="dS1GmFQ2f3zdgsi-DhAc-4" value="cst_id" style="text;strokeColor=none;fillColor=none;align=left;verticalAlign=middle;spacingLeft=4;spacingRight=4;overflow=hidden;points=[[0,0.5],[1,0.5]];portConstraint=eastwest;rotatable=0;whiteSpace=wrap;html=1;" parent="dS1GmFQ2f3zdgsi-DhAc-3" vertex="1">
          <mxGeometry y="30" width="210" height="30" as="geometry" />
        </mxCell>
        <mxCell id="dS1GmFQ2f3zdgsi-DhAc-21" value="cst_key" style="text;strokeColor=none;fillColor=none;align=left;verticalAlign=middle;spacingLeft=4;spacingRight=4;overflow=hidden;points=[[0,0.5],[1,0.5]];portConstraint=eastwest;rotatable=0;whiteSpace=wrap;html=1;" parent="dS1GmFQ2f3zdgsi-DhAc-3" vertex="1">
          <mxGeometry y="60" width="210" height="30" as="geometry" />
        </mxCell>
        <mxCell id="SAePrCGYsfa_0Azj1TJC-6" value="CUSTOMER" style="text;html=1;strokeColor=#82b366;fillColor=#d5e8d4;align=center;verticalAlign=middle;whiteSpace=wrap;overflow=hidden;fontSize=10;rounded=1;fontStyle=1" parent="dS1GmFQ2f3zdgsi-DhAc-3" vertex="1">
          <mxGeometry y="90" width="210" height="20" as="geometry" />
        </mxCell>
        <mxCell id="dS1GmFQ2f3zdgsi-DhAc-7" value="customer information" style="rounded=0;whiteSpace=wrap;html=1;fillColor=none;strokeColor=none;fontSize=10;" parent="1" vertex="1">
          <mxGeometry x="506" y="360" width="180" height="20" as="geometry" />
        </mxCell>
        <mxCell id="dS1GmFQ2f3zdgsi-DhAc-8" value="crm_prd_info" style="swimlane;fontStyle=0;childLayout=stackLayout;horizontal=1;startSize=30;horizontalStack=0;resizeParent=1;resizeParentMax=0;resizeLast=0;collapsible=1;marginBottom=0;whiteSpace=wrap;html=1;fillColor=#dae8fc;rounded=1;strokeColor=#6c8ebf;" parent="1" vertex="1">
          <mxGeometry x="490" y="200" width="210" height="60" as="geometry" />
        </mxCell>
        <mxCell id="dS1GmFQ2f3zdgsi-DhAc-9" value="prd_key" style="text;strokeColor=none;fillColor=none;align=left;verticalAlign=middle;spacingLeft=4;spacingRight=4;overflow=hidden;points=[[0,0.5],[1,0.5]];portConstraint=eastwest;rotatable=0;whiteSpace=wrap;html=1;" parent="dS1GmFQ2f3zdgsi-DhAc-8" vertex="1">
          <mxGeometry y="30" width="210" height="30" as="geometry" />
        </mxCell>
        <mxCell id="dS1GmFQ2f3zdgsi-DhAc-10" value="Current &amp;amp; Historical Product Information" style="rounded=0;whiteSpace=wrap;html=1;fillColor=none;strokeColor=none;fontSize=10;" parent="1" vertex="1">
          <mxGeometry x="501" y="180" width="180" height="20" as="geometry" />
        </mxCell>
        <mxCell id="dS1GmFQ2f3zdgsi-DhAc-11" value="crm_sales_details" style="swimlane;fontStyle=0;childLayout=stackLayout;horizontal=1;startSize=30;horizontalStack=0;resizeParent=1;resizeParentMax=0;resizeLast=0;collapsible=1;marginBottom=0;whiteSpace=wrap;html=1;fillColor=#dae8fc;rounded=1;strokeColor=#6c8ebf;" parent="1" vertex="1">
          <mxGeometry x="120" y="270" width="210" height="90" as="geometry" />
        </mxCell>
        <mxCell id="dS1GmFQ2f3zdgsi-DhAc-12" value="sls_prd_key" style="text;strokeColor=none;fillColor=none;align=left;verticalAlign=middle;spacingLeft=4;spacingRight=4;overflow=hidden;points=[[0,0.5],[1,0.5]];portConstraint=eastwest;rotatable=0;whiteSpace=wrap;html=1;" parent="dS1GmFQ2f3zdgsi-DhAc-11" vertex="1">
          <mxGeometry y="30" width="210" height="30" as="geometry" />
        </mxCell>
        <mxCell id="dS1GmFQ2f3zdgsi-DhAc-14" value="sls_cst_id" style="text;strokeColor=none;fillColor=none;align=left;verticalAlign=middle;spacingLeft=4;spacingRight=4;overflow=hidden;points=[[0,0.5],[1,0.5]];portConstraint=eastwest;rotatable=0;whiteSpace=wrap;html=1;" parent="dS1GmFQ2f3zdgsi-DhAc-11" vertex="1">
          <mxGeometry y="60" width="210" height="30" as="geometry" />
        </mxCell>
        <mxCell id="dS1GmFQ2f3zdgsi-DhAc-13" value="Transactional Records about Sales &amp;amp; Orders" style="rounded=0;whiteSpace=wrap;html=1;fillColor=none;strokeColor=none;fontSize=10;" parent="1" vertex="1">
          <mxGeometry x="135" y="250" width="180" height="20" as="geometry" />
        </mxCell>
        <mxCell id="dS1GmFQ2f3zdgsi-DhAc-16" style="edgeStyle=orthogonalEdgeStyle;rounded=0;orthogonalLoop=1;jettySize=auto;html=1;entryX=0;entryY=0.5;entryDx=0;entryDy=0;" parent="1" source="dS1GmFQ2f3zdgsi-DhAc-14" target="dS1GmFQ2f3zdgsi-DhAc-4" edge="1">
          <mxGeometry relative="1" as="geometry" />
        </mxCell>
        <mxCell id="dS1GmFQ2f3zdgsi-DhAc-17" style="edgeStyle=orthogonalEdgeStyle;rounded=0;orthogonalLoop=1;jettySize=auto;html=1;entryX=0;entryY=0.5;entryDx=0;entryDy=0;" parent="1" source="dS1GmFQ2f3zdgsi-DhAc-12" target="dS1GmFQ2f3zdgsi-DhAc-9" edge="1">
          <mxGeometry relative="1" as="geometry" />
        </mxCell>
        <mxCell id="dS1GmFQ2f3zdgsi-DhAc-18" value="erp_cust_az12" style="swimlane;fontStyle=0;childLayout=stackLayout;horizontal=1;startSize=30;horizontalStack=0;resizeParent=1;resizeParentMax=0;resizeLast=0;collapsible=1;marginBottom=0;whiteSpace=wrap;html=1;fillColor=#fff2cc;rounded=1;strokeColor=#d6b656;" parent="1" vertex="1">
          <mxGeometry x="1060" y="301" width="210" height="60" as="geometry" />
        </mxCell>
        <mxCell id="dS1GmFQ2f3zdgsi-DhAc-19" value="CID" style="text;strokeColor=none;fillColor=none;align=left;verticalAlign=middle;spacingLeft=4;spacingRight=4;overflow=hidden;points=[[0,0.5],[1,0.5]];portConstraint=eastwest;rotatable=0;whiteSpace=wrap;html=1;" parent="dS1GmFQ2f3zdgsi-DhAc-18" vertex="1">
          <mxGeometry y="30" width="210" height="30" as="geometry" />
        </mxCell>
        <mxCell id="dS1GmFQ2f3zdgsi-DhAc-20" value="Extra cusomer information &amp;amp; Birth date" style="rounded=0;whiteSpace=wrap;html=1;fillColor=none;strokeColor=none;fontSize=10;" parent="1" vertex="1">
          <mxGeometry x="1069" y="281" width="180" height="20" as="geometry" />
        </mxCell>
        <mxCell id="dS1GmFQ2f3zdgsi-DhAc-24" value="erp_loc_a101" style="swimlane;fontStyle=0;childLayout=stackLayout;horizontal=1;startSize=30;horizontalStack=0;resizeParent=1;resizeParentMax=0;resizeLast=0;collapsible=1;marginBottom=0;whiteSpace=wrap;html=1;fillColor=#fff2cc;rounded=1;strokeColor=#d6b656;" parent="1" vertex="1">
          <mxGeometry x="1065" y="451" width="210" height="70" as="geometry" />
        </mxCell>
        <mxCell id="dS1GmFQ2f3zdgsi-DhAc-25" value="CID" style="text;strokeColor=none;fillColor=none;align=left;verticalAlign=middle;spacingLeft=4;spacingRight=4;overflow=hidden;points=[[0,0.5],[1,0.5]];portConstraint=eastwest;rotatable=0;whiteSpace=wrap;html=1;" parent="dS1GmFQ2f3zdgsi-DhAc-24" vertex="1">
          <mxGeometry y="30" width="210" height="22" as="geometry" />
        </mxCell>
        <mxCell id="SAePrCGYsfa_0Azj1TJC-5" value="CUSTOMER" style="text;html=1;strokeColor=#82b366;fillColor=#d5e8d4;align=center;verticalAlign=middle;whiteSpace=wrap;overflow=hidden;fontSize=10;rounded=1;fontStyle=1" parent="dS1GmFQ2f3zdgsi-DhAc-24" vertex="1">
          <mxGeometry y="52" width="210" height="18" as="geometry" />
        </mxCell>
        <mxCell id="dS1GmFQ2f3zdgsi-DhAc-26" value="Location of customers&amp;nbsp;" style="rounded=0;whiteSpace=wrap;html=1;fillColor=none;strokeColor=none;fontSize=10;" parent="1" vertex="1">
          <mxGeometry x="1069" y="431" width="180" height="12" as="geometry" />
        </mxCell>
        <mxCell id="dS1GmFQ2f3zdgsi-DhAc-27" value="erp_px_cat_g1v2" style="swimlane;fontStyle=0;childLayout=stackLayout;horizontal=1;startSize=30;horizontalStack=0;resizeParent=1;resizeParentMax=0;resizeLast=0;collapsible=1;marginBottom=0;whiteSpace=wrap;html=1;fillColor=#fff2cc;rounded=1;strokeColor=#d6b656;" parent="1" vertex="1">
          <mxGeometry x="1058" y="191" width="210" height="60" as="geometry" />
        </mxCell>
        <mxCell id="dS1GmFQ2f3zdgsi-DhAc-28" value="id" style="text;strokeColor=none;fillColor=none;align=left;verticalAlign=middle;spacingLeft=4;spacingRight=4;overflow=hidden;points=[[0,0.5],[1,0.5]];portConstraint=eastwest;rotatable=0;whiteSpace=wrap;html=1;" parent="dS1GmFQ2f3zdgsi-DhAc-27" vertex="1">
          <mxGeometry y="30" width="210" height="30" as="geometry" />
        </mxCell>
        <mxCell id="dS1GmFQ2f3zdgsi-DhAc-29" value="Product Categories" style="rounded=0;whiteSpace=wrap;html=1;fillColor=none;strokeColor=none;fontSize=10;" parent="1" vertex="1">
          <mxGeometry x="1069" y="171" width="180" height="20" as="geometry" />
        </mxCell>
        <mxCell id="dS1GmFQ2f3zdgsi-DhAc-33" style="edgeStyle=orthogonalEdgeStyle;rounded=0;orthogonalLoop=1;jettySize=auto;html=1;entryX=1;entryY=0.5;entryDx=0;entryDy=0;" parent="1" source="dS1GmFQ2f3zdgsi-DhAc-19" target="dS1GmFQ2f3zdgsi-DhAc-21" edge="1">
          <mxGeometry relative="1" as="geometry" />
        </mxCell>
        <mxCell id="dS1GmFQ2f3zdgsi-DhAc-35" style="edgeStyle=orthogonalEdgeStyle;rounded=0;orthogonalLoop=1;jettySize=auto;html=1;entryX=1;entryY=0.5;entryDx=0;entryDy=0;" parent="1" source="dS1GmFQ2f3zdgsi-DhAc-25" target="dS1GmFQ2f3zdgsi-DhAc-21" edge="1">
          <mxGeometry relative="1" as="geometry" />
        </mxCell>
        <mxCell id="dS1GmFQ2f3zdgsi-DhAc-36" style="edgeStyle=orthogonalEdgeStyle;rounded=0;orthogonalLoop=1;jettySize=auto;html=1;entryX=1;entryY=0.5;entryDx=0;entryDy=0;" parent="1" source="dS1GmFQ2f3zdgsi-DhAc-28" target="dS1GmFQ2f3zdgsi-DhAc-9" edge="1">
          <mxGeometry relative="1" as="geometry" />
        </mxCell>
        <mxCell id="dS1GmFQ2f3zdgsi-DhAc-38" value="&lt;h1&gt;CRM&lt;/h1&gt;" style="rounded=0;whiteSpace=wrap;html=1;fillColor=#dae8fc;strokeColor=#6c8ebf;" parent="1" vertex="1">
          <mxGeometry x="346" y="100" width="160" height="60" as="geometry" />
        </mxCell>
        <mxCell id="dS1GmFQ2f3zdgsi-DhAc-40" value="&lt;h1&gt;ERP&lt;/h1&gt;" style="rounded=0;whiteSpace=wrap;html=1;fillColor=#fff2cc;strokeColor=#d6b656;" parent="1" vertex="1">
          <mxGeometry x="1060" y="90" width="160" height="60" as="geometry" />
        </mxCell>
        <mxCell id="SAePrCGYsfa_0Azj1TJC-1" value="PRODUCT" style="text;html=1;strokeColor=#b85450;fillColor=#f8cecc;align=center;verticalAlign=middle;whiteSpace=wrap;overflow=hidden;fontSize=10;rounded=1;fontStyle=1" parent="1" vertex="1">
          <mxGeometry x="500" y="260" width="190" height="20" as="geometry" />
        </mxCell>
        <mxCell id="SAePrCGYsfa_0Azj1TJC-3" value="PRODUCT" style="text;html=1;strokeColor=#b85450;fillColor=#f8cecc;align=center;verticalAlign=middle;whiteSpace=wrap;overflow=hidden;fontSize=10;rounded=1;fontStyle=1" parent="1" vertex="1">
          <mxGeometry x="1069" y="251" width="190" height="20" as="geometry" />
        </mxCell>
        <mxCell id="SAePrCGYsfa_0Azj1TJC-4" value="CUSTOMER" style="text;html=1;strokeColor=#82b366;fillColor=#d5e8d4;align=center;verticalAlign=middle;whiteSpace=wrap;overflow=hidden;fontSize=10;rounded=1;fontStyle=1" parent="1" vertex="1">
          <mxGeometry x="1072" y="361" width="190" height="20" as="geometry" />
        </mxCell>
        <mxCell id="SAePrCGYsfa_0Azj1TJC-7" value="SALES" style="text;html=1;strokeColor=#6c8ebf;fillColor=#dae8fc;align=center;verticalAlign=middle;whiteSpace=wrap;overflow=hidden;fontSize=10;rounded=1;fontStyle=1" parent="1" vertex="1">
          <mxGeometry x="120" y="360" width="210" height="20" as="geometry" />
        </mxCell>
      </root>
    </mxGraphModel>
  </diagram>
</mxfile>
